<svg width="32" height="32" version="1.1" viewBox="0 0 32 32" xmlns="http://www.w3.org/2000/svg">
    <g transform="matrix(.83117 0 0 .92067 -2.7013 -4.8321)" fill="#fff" stroke="#000" stroke-linejoin="round" stroke-width="1.5">
        <path d="m9 26c8.5-1.5 21-1.5 27 0l2.5-12.5-7.5 11.5-0.3-14.1-5.2 13.6-3-14.5-3 14.5-5.2-13.6-0.3 14.1-7.5-11.5z"/>
        <path d="m9 26c0 2 1.5 2 2.5 4 1 1.5 1 1 0.5 3.5-1.5 1-1 2.5-1 2.5-1.5 1.5 0 2.5 0 2.5 6.5 1 16.5 1 23 0 0 0 1.5-1 0-2.5 0 0 0.5-1.5-1-2.5-0.5-2.5-0.5-2 0.5-3.5 1-2 2.5-2 2.5-4-8.5-1.5-18.5-1.5-27 0z"/>
        <path d="m11.5 30c3.5-1 18.5-1 22 0" fill="none"/>
        <path d="m12 33.5c6-1 15-1 21 0" fill="none"/>
        <circle cx="6" cy="12" r="2"/>
        <circle cx="14" cy="9" r="2"/>
        <circle cx="22.5" cy="8" r="2"/>
        <circle cx="31" cy="9" r="2"/>
        <circle cx="39" cy="12" r="2"/>
    </g>
</svg>
